<?xml version="1.0" encoding="utf-8"?>
<!-- Generator: Adobe Illustrator 23.0.1, SVG Export Plug-In . SVG Version: 6.00 Build 0)  -->
<svg version="1.1" id="Layer_1" xmlns="http://www.w3.org/2000/svg" xmlns:xlink="http://www.w3.org/1999/xlink" x="0px" y="0px"
	 viewBox="0 0 95 95" style="enable-background:new 0 0 95 95;" xml:space="preserve">
<style type="text/css">
	.st0{fill:#0A7523;}
	.st1{fill:#0D6022;}
	.st2{fill:#F70808;}
</style>
<path class="st0" d="M10.2,74.4c-5.5-7.6-8.7-16.9-8.7-26.9c0-25.4,20.7-46.1,46.1-46.1c10,0,19.4,3.2,26.9,8.7l0.9-0.9
	c-7.8-5.7-17.4-9.1-27.8-9.1C21.4,0.2,0.2,21.4,0.2,47.5c0,10.4,3.4,20,9.1,27.8L10.2,74.4z M84.8,20.6c5.5,7.6,8.7,16.9,8.7,26.9
	c0,25.4-20.7,46.1-46.1,46.1c-10.1,0-19.4-3.2-26.9-8.7l-0.9,0.9c7.8,5.7,17.4,9.1,27.8,9.1c26.1,0,47.3-21.2,47.3-47.3
	c0-10.4-3.4-20-9.1-27.8L84.8,20.6L84.8,20.6z"/>
<g>
	<path class="st1" d="M75,77.8c-0.8-8-0.7-15.7-3.2-23.1c-0.8-2.5,0.5-6.6-2.9-7.1c-3.7-0.5-3.3,4-4.7,6.3c-0.1,0.1,0,0.3,0,0.5
		c-0.6,2.1-0.9,2.3-2.8,0.5c-5.4-5.3-4.7-10.5,2.2-12.9c3.2-1.1,5-3.1,6.1-6c0.3-0.9,0.1-2.2,1.3-2.5c4.8-1.2,0.8-2.3-0.1-3.1
		c-1.4-1.2-3.2-1.4-5.2-1.3c-5.3,0.2-10.7,0.2-16,0c-6.7-0.2-7.8-1.3-8-8c0-1.4-0.1-2.6-0.8-3.9c-0.6-0.9-1.2-1.8-2.2-0.6
		c-2.5,3.1-3.9,1.4-5.2-1.1c-0.6-1.3-0.9-3.9-2.9-0.8c-0.6,1-1.7,0.3-2.3-0.8c-0.8-1.3-1.8-2.4-3.4-2.6c-1.6,1,0.6,2.7-1.1,4
		c-4.1,2.8-2.9,5.3,0.6,8c1.4,1.1,2.7,1.7,4.3,2.2c0.6,0.2,1,1.2,1.3,2c0.4,0.9-0.4,1.4-1,1.2c-3-0.9-3.6,1.4-5.2,3.1
		c-4.6,4.6-4.9,5.2,1.2,7.3c4,1.4,3.9,3.3,2.5,6.2c-0.7,1.4-1.2,2.7-0.1,4.2c3.7,5.4,3.5,11.9,5,17.9c1.4,5.6,3.2,6.6,7.9,3
		c1.8-1.4,3.1-4,4.8,0.1c0.5,1.3,1.7,0.3,2.3-0.6c0.7-0.9,0.6-2.6,2.7-2c3.4,1,3.8-1.5,4.1-3.9c0.1-0.9-1-2,1-2.7
		c5.7-1.9,11.3,1.6,10.5,7.6c-0.9,6,3,9.6,4.5,14.1C73,82,65.3,74.5,75,77.8z"/>
</g>
<path class="st2" d="M44.3,37.8c4.8,0,8.8,3.9,8.8,8.8c0,4.8-3.9,8.8-8.8,8.8c-4.8,0-8.8-3.9-8.8-8.8S39.5,37.8,44.3,37.8z"/>
</svg>
