<?xml version="1.0" encoding="utf-8"?>
<!-- Generator: Adobe Illustrator 23.0.1, SVG Export Plug-In . SVG Version: 6.00 Build 0)  -->
<svg version="1.1" id="Layer_1" xmlns="http://www.w3.org/2000/svg" xmlns:xlink="http://www.w3.org/1999/xlink" x="0px" y="0px"
	 viewBox="0 0 209 92" style="enable-background:new 0 0 209 92;" xml:space="preserve">
<style type="text/css">
	.st0{fill:#FFFFFF;}
	.st1{fill:#0D6D2B;}
	.st2{fill:#ED1F34;}
</style>
<g>
	<g>
		<g>
			<path class="st0" d="M67.2,15.6H73c1.8,0,3.2,0.1,4.2,0.4c0.9,0.3,1.7,0.9,2.3,1.7c0.6,0.9,0.9,2.3,0.9,4.2
				c0,1.3-0.2,2.2-0.6,2.7c-0.4,0.5-1.2,0.9-2.4,1.2c1.3,0.3,2.3,0.8,2.7,1.5c0.5,0.7,0.7,1.8,0.7,3.2v2.1c0,1.5-0.2,2.6-0.5,3.4
				c-0.3,0.7-0.9,1.2-1.7,1.5c-0.8,0.3-2.3,0.4-4.7,0.4h-6.7V15.6z M73,19.4v5c0.2,0,0.4,0,0.6,0c0.6,0,0.9-0.1,1.1-0.4
				c0.2-0.3,0.2-1.1,0.2-2.4c0-0.7-0.1-1.2-0.2-1.5c-0.1-0.3-0.3-0.5-0.5-0.5C74,19.5,73.6,19.4,73,19.4z M73,27.9v6.3
				c0.8,0,1.3-0.2,1.6-0.4c0.2-0.2,0.3-0.8,0.3-1.7V30c0-1-0.1-1.5-0.3-1.7C74.4,28,73.9,27.9,73,27.9z"/>
			<path class="st0" d="M95.4,29.1h-7.2v4c0,0.8,0.1,1.4,0.2,1.6c0.1,0.2,0.4,0.4,0.7,0.4c0.4,0,0.7-0.2,0.9-0.5
				c0.1-0.3,0.2-0.9,0.2-1.8v-2.4h5.3v1.4c0,1.1-0.1,2-0.2,2.6c-0.1,0.6-0.5,1.3-1,2c-0.5,0.7-1.2,1.2-2,1.6c-0.8,0.3-1.8,0.5-3,0.5
				c-1.2,0-2.2-0.2-3.1-0.5c-0.9-0.3-1.6-0.8-2.1-1.4c-0.5-0.6-0.9-1.3-1-2c-0.2-0.7-0.3-1.8-0.3-3.1V26c0-1.6,0.2-2.9,0.7-3.8
				c0.4-0.9,1.1-1.6,2.1-2.1c1-0.5,2.1-0.7,3.4-0.7c1.6,0,2.9,0.3,3.9,0.9c1,0.6,1.7,1.4,2.1,2.4c0.4,1,0.6,2.4,0.6,4.1V29.1z
				 M89.7,26.1v-1.3c0-1-0.1-1.6-0.2-1.8c-0.1-0.3-0.3-0.4-0.6-0.4c-0.4,0-0.6,0.1-0.7,0.4c-0.1,0.2-0.1,0.9-0.1,1.9v1.3H89.7z"/>
			<path class="st0" d="M102.2,26.7h-5.2v-1.2c0-1.4,0.2-2.5,0.5-3.3c0.3-0.8,1-1.5,2-2c1-0.6,2.3-0.9,3.9-0.9c1.9,0,3.3,0.3,4.3,1
				c1,0.7,1.5,1.5,1.7,2.5c0.2,1,0.3,3,0.3,6V38h-5.4v-1.6c-0.3,0.7-0.8,1.1-1.3,1.5c-0.5,0.3-1.2,0.5-1.9,0.5c-1,0-1.9-0.3-2.7-0.8
				s-1.2-1.8-1.2-3.6v-1.5c0-1.4,0.2-2.3,0.7-2.8c0.4-0.5,1.5-1.1,3.2-1.7c1.8-0.7,2.8-1.2,3-1.5c0.1-0.2,0.2-0.8,0.2-1.5
				c0-1-0.1-1.6-0.2-1.9c-0.1-0.3-0.4-0.4-0.7-0.4c-0.4,0-0.6,0.1-0.7,0.4c-0.1,0.2-0.1,0.9-0.1,1.9V26.7z M104,29.3
				c-0.9,0.7-1.4,1.2-1.6,1.6c-0.1,0.4-0.2,1.1-0.2,1.9c0,1,0.1,1.6,0.2,1.8c0.1,0.3,0.4,0.4,0.7,0.4c0.4,0,0.6-0.1,0.7-0.3
				c0.1-0.2,0.2-0.8,0.2-1.7V29.3z"/>
			<path class="st0" d="M124.3,19.6V38h-5.7l0.1-1.5c-0.4,0.6-0.9,1.1-1.4,1.4c-0.6,0.3-1.2,0.5-2,0.5c-0.8,0-1.5-0.1-2.1-0.4
				c-0.6-0.3-1-0.7-1.2-1.2c-0.3-0.5-0.4-1-0.5-1.5c-0.1-0.5-0.1-1.6-0.1-3.2V19.6h5.6v12.5c0,1.4,0,2.3,0.1,2.5
				c0.1,0.3,0.3,0.4,0.7,0.4c0.4,0,0.7-0.1,0.7-0.4c0.1-0.3,0.1-1.2,0.1-2.7V19.6H124.3z"/>
			<path class="st0" d="M132.2,17.2v2.9h1.5V23h-1.5v9.8c0,1.2,0.1,1.9,0.2,2c0.1,0.1,0.6,0.2,1.6,0.2v3h-2.3
				c-1.3,0-2.2-0.1-2.7-0.2c-0.5-0.1-1-0.4-1.4-0.7c-0.4-0.4-0.7-0.8-0.8-1.3c-0.1-0.5-0.2-1.7-0.2-3.5V23h-1.2v-2.9h1.2v-2.9H132.2
				z"/>
			<path class="st0" d="M147.2,19.6l-1.6,13.3c-0.3,2.1-0.5,3.5-0.6,4.3c-0.2,0.8-0.5,1.4-0.9,1.9c-0.4,0.5-0.9,0.9-1.7,1.1
				c-0.7,0.2-1.8,0.4-3.4,0.4h-3.4v-2.9c0.9,0,1.4,0,1.7-0.1c0.2-0.1,0.4-0.3,0.4-0.6c0-0.1-0.1-0.8-0.3-1.9l-3.1-15.4h5.1l1.8,12.4
				l0.9-12.4H147.2z"/>
		</g>
		<g>
			<path class="st0" d="M169.4,44.5c-1.6,0-2.9-0.5-4-1.4c-1.2-1-1.8-2.3-1.8-3.9c0-1.9,0.6-3.7,1.7-5.3c1.3-1.8,2.9-2.6,4.8-2.6
				c1.8,0,3.2,0.4,4.1,1.2c0.9,0.9,1.4,2.2,1.4,4.1c0,1.9-0.5,3.7-1.6,5.3C172.9,43.6,171.3,44.5,169.4,44.5z M170.2,32.9
				c-1.4,0-2.5,0.7-3.5,2.1c-0.9,1.3-1.3,2.6-1.3,4.2c0,1.1,0.4,2,1.2,2.6c0.8,0.6,1.7,1,2.9,1c1.4,0,2.5-0.7,3.4-2.1
				c0.8-1.2,1.2-2.6,1.2-4.1c0-1.3-0.3-2.3-0.9-2.8C172.5,33.2,171.5,32.9,170.2,32.9z"/>
			<path class="st0" d="M183.3,32.1c-1.4,0-2.1,0.9-2.3,2.8l0,0.5c1-0.1,1.6-0.1,1.9-0.1c0.9,0,1.3,0.3,1.3,0.8
				c0,0.4-0.2,0.7-0.7,0.7c-0.2,0-0.4,0-0.7,0c-0.3,0-0.9,0-1.9,0.1l-0.1,1.9c0,0.3,0,0.9,0,1.6c0,0.7,0,1.2,0,1.6
				c0,1.1-0.1,1.9-0.2,2.5c-0.1,0.4-0.4,0.7-0.8,0.7c-0.2,0-0.4-0.1-0.6-0.2c-0.2-0.1-0.2-0.3-0.2-0.6c0,0,0-0.1,0-0.2
				c0.1-0.7,0.2-1.5,0.2-2.4l0-2.3v-2.4c-0.7,0.1-1.1,0.1-1.3,0.1c-0.6,0-0.9-0.3-0.9-0.8c0-0.6,0.5-0.8,1.5-0.9l0.8,0
				c0-0.3,0.1-0.7,0.1-1.3c0.1-1.2,0.5-2.2,0.9-2.8c0.6-0.7,1.5-1.1,2.7-1.1c0.8,0,1.2,0.3,1.2,0.8C184.4,31.8,184,32.1,183.3,32.1z
				"/>
		</g>
		<g>
			<path class="st0" d="M66.8,52.5h5.8c1.8,0,3.2,0.1,4.2,0.4c0.9,0.3,1.7,0.9,2.3,1.7c0.6,0.9,0.9,2.3,0.9,4.2
				c0,1.3-0.2,2.2-0.6,2.7c-0.4,0.5-1.2,0.9-2.4,1.2c1.3,0.3,2.3,0.8,2.7,1.5c0.5,0.7,0.7,1.8,0.7,3.2v2.1c0,1.5-0.2,2.6-0.5,3.4
				c-0.3,0.7-0.9,1.2-1.7,1.5c-0.8,0.3-2.3,0.4-4.6,0.4h-6.7V52.5z M72.6,56.3v5c0.2,0,0.4,0,0.6,0c0.6,0,0.9-0.1,1.1-0.4
				c0.2-0.3,0.2-1.1,0.2-2.4c0-0.7-0.1-1.2-0.2-1.5c-0.1-0.3-0.3-0.5-0.5-0.5C73.6,56.4,73.2,56.3,72.6,56.3z M72.6,64.8V71
				c0.8,0,1.3-0.2,1.6-0.4c0.2-0.2,0.3-0.8,0.3-1.7v-2.1c0-1-0.1-1.5-0.3-1.7C74,64.9,73.5,64.8,72.6,64.8z"/>
			<path class="st0" d="M92.5,52.5l3.3,22.4h-5.9l-0.3-4h-2.1l-0.3,4h-6l3-22.4H92.5z M89.4,66.9c-0.3-2.5-0.6-5.7-0.9-9.4
				c-0.6,4.3-1,7.4-1.1,9.4H89.4z"/>
			<path class="st0" d="M109.8,52.5v22.4h-5.1l-3-10.2v10.2h-4.9V52.5h4.9l3.3,10.1V52.5H109.8z"/>
			<path class="st0" d="M125.5,60.7h-5.8v-2c0-1.3-0.1-2.1-0.2-2.4c-0.1-0.3-0.4-0.5-0.8-0.5c-0.4,0-0.6,0.1-0.7,0.4
				c-0.1,0.3-0.2,1-0.2,2.1v10.7c0,1,0.1,1.7,0.2,2c0.1,0.3,0.4,0.5,0.8,0.5c0.4,0,0.7-0.2,0.9-0.5c0.2-0.4,0.2-1.1,0.2-2.1v-2.7
				h-1.2v-3.4h6.8v12h-3.7l-0.5-1.6c-0.4,0.7-0.9,1.2-1.5,1.6c-0.6,0.3-1.3,0.5-2.1,0.5c-1,0-1.9-0.2-2.7-0.7
				c-0.9-0.5-1.5-1.1-1.9-1.8c-0.4-0.7-0.7-1.4-0.8-2.2c-0.1-0.8-0.2-1.9-0.2-3.5v-6.6c0-2.1,0.1-3.7,0.3-4.7c0.2-1,0.9-1.9,2-2.7
				c1.1-0.8,2.5-1.2,4.2-1.2c1.7,0,3.1,0.4,4.2,1.1c1.1,0.7,1.9,1.5,2.2,2.5c0.3,1,0.5,2.4,0.5,4.2V60.7z"/>
			<path class="st0" d="M133.6,52.5v17.9h3.5v4.5h-9.4V52.5H133.6z"/>
			<path class="st0" d="M149.3,52.5l3.3,22.4h-5.9l-0.3-4h-2.1l-0.3,4h-6l3-22.4H149.3z M146.2,66.9c-0.3-2.5-0.6-5.7-0.9-9.4
				c-0.6,4.3-1,7.4-1.1,9.4H146.2z"/>
			<path class="st0" d="M153.6,52.5h4.4c2.8,0,4.7,0.1,5.7,0.4c1,0.3,1.7,0.7,2.3,1.3c0.5,0.6,0.8,1.2,1,2c0.1,0.7,0.2,2.1,0.2,4.3
				v7.8c0,2-0.1,3.4-0.3,4c-0.2,0.7-0.5,1.2-1,1.6c-0.5,0.4-1,0.6-1.7,0.8c-0.7,0.2-1.7,0.2-3.1,0.2h-7.3V52.5z M159.4,56.3V71
				c0.8,0,1.4-0.2,1.5-0.5c0.2-0.3,0.3-1.3,0.3-2.7v-8.7c0-1,0-1.7-0.1-1.9c-0.1-0.3-0.2-0.5-0.4-0.6
				C160.5,56.4,160,56.3,159.4,56.3z"/>
			<path class="st0" d="M169.2,52.5h9.7V57H175v4.2h3.6v4.3H175v4.9h4.3v4.5h-10.1V52.5z"/>
			<path class="st0" d="M193.3,59.3h-5.4v-1.7c0-0.8-0.1-1.3-0.2-1.5c-0.1-0.2-0.4-0.3-0.7-0.3c-0.4,0-0.6,0.1-0.8,0.4
				c-0.2,0.3-0.3,0.7-0.3,1.3c0,0.7,0.1,1.3,0.3,1.7c0.2,0.4,0.7,0.8,1.6,1.4c2.6,1.5,4.2,2.8,4.9,3.8c0.7,1,1,2.6,1,4.8
				c0,1.6-0.2,2.8-0.6,3.5c-0.4,0.8-1.1,1.4-2.2,1.9c-1.1,0.5-2.3,0.8-3.7,0.8c-1.6,0-2.9-0.3-4-0.9c-1.1-0.6-1.8-1.3-2.2-2.3
				c-0.3-0.9-0.5-2.2-0.5-3.9v-1.5h5.4v2.7c0,0.8,0.1,1.4,0.2,1.6c0.2,0.2,0.4,0.4,0.8,0.4s0.7-0.2,0.9-0.5c0.2-0.3,0.3-0.8,0.3-1.4
				c0-1.3-0.2-2.2-0.5-2.6c-0.4-0.4-1.3-1.1-2.7-2c-1.4-1-2.4-1.7-2.9-2.1c-0.5-0.4-0.9-1-1.2-1.8c-0.3-0.8-0.5-1.7-0.5-2.9
				c0-1.7,0.2-3,0.7-3.8c0.4-0.8,1.1-1.4,2.1-1.9c1-0.4,2.2-0.7,3.5-0.7c1.5,0,2.8,0.2,3.9,0.7s1.8,1.1,2.1,1.8
				c0.3,0.7,0.5,2,0.5,3.8V59.3z"/>
			<path class="st0" d="M209,52.5v22.4h-5.8v-9.4h-1.7v9.4h-5.8V52.5h5.8v8h1.7v-8H209z"/>
		</g>
	</g>
	<g>
		<g>
			<path class="st1" d="M59.9,79.2c-0.9-8.7-0.7-17-3.4-25.1c-0.9-2.7,0.5-7.2-3.1-7.7c-4-0.6-3.6,4.3-5.2,6.8c-0.1,0.1,0,0.4,0,0.5
				c-0.6,2.2-1,2.5-3,0.6c-5.8-5.7-5.1-11.4,2.4-14.1c3.5-1.2,5.5-3.3,6.6-6.5c0.4-1,0.1-2.4,1.5-2.7c5.3-1.3,0.8-2.6-0.1-3.3
				c-1.6-1.3-3.5-1.5-5.6-1.4c-5.8,0.2-11.6,0.2-17.4,0c-7.3-0.2-8.5-1.5-8.7-8.7c0-1.5-0.1-2.9-0.9-4.2c-0.6-1-1.3-1.9-2.4-0.6
				c-2.8,3.4-4.2,1.5-5.6-1.2c-0.7-1.4-1-4.2-3.2-0.8c-0.7,1-1.8,0.3-2.6-0.8C8.3,8.5,7.2,7.3,5.5,7c-1.8,1.1,0.7,3-1.2,4.3
				c-4.4,3.1-3.2,5.8,0.6,8.7c1.5,1.2,3,1.8,4.7,2.4c0.6,0.2,1.1,1.4,1.4,2.2c0.4,0.9-0.4,1.5-1.1,1.3c-3.2-1-3.9,1.6-5.6,3.3
				c-5,5-5.3,5.6,1.3,7.9c4.3,1.5,4.2,3.6,2.7,6.8c-0.7,1.5-1.3,2.9-0.1,4.6c4,5.8,3.8,12.9,5.4,19.4c1.5,6.1,3.5,7.2,8.6,3.3
				c2-1.5,3.4-4.4,5.2,0.2c0.6,1.4,1.8,0.3,2.5-0.6c0.7-1,0.6-2.8,2.9-2.1c3.7,1.1,4.1-1.6,4.5-4.3c0.1-1-1.1-2.2,1.1-2.9
				c6.2-2,12.3,1.7,11.4,8.3c-0.9,6.5,3.2,10.4,4.9,15.3C57.7,83.6,49.4,75.5,59.9,79.2z"/>
		</g>
		<path class="st2" d="M37.4,43.6c-1.1-5.6-6.1-9.7-11.9-9.7c-6.7,0-12.1,5.4-12.1,12.1s5.4,12.1,12.1,12.1c5.7,0,10.7-4.1,11.9-9.7
			c0.1-0.7,0.8-1.2,1.5-1.1C39,47,39,46.5,39,46s0-0.9-0.1-1.4C38.2,44.8,37.6,44.3,37.4,43.6z"/>
	</g>
</g>
</svg>
