<?xml version="1.0" encoding="utf-8"?>
<!-- Generator: Adobe Illustrator 23.0.1, SVG Export Plug-In . SVG Version: 6.00 Build 0)  -->
<svg version="1.1" id="Layer_1" xmlns="http://www.w3.org/2000/svg" xmlns:xlink="http://www.w3.org/1999/xlink" x="0px" y="0px"
	 viewBox="0 0 209 92" style="enable-background:new 0 0 209 92;" xml:space="preserve">
<style type="text/css">
	.st0{fill:#0D6D2B;}
	.st1{fill:#ED1F34;}
</style>
<g>
	<g>
		<g>
			<path d="M65.2,17.6h5.9c1.9,0,3.3,0.1,4.3,0.4c1,0.3,1.7,0.9,2.3,1.8c0.6,0.9,0.9,2.3,0.9,4.3c0,1.3-0.2,2.3-0.6,2.8
				s-1.2,0.9-2.5,1.2c1.4,0.3,2.3,0.8,2.8,1.5c0.5,0.7,0.7,1.8,0.7,3.3v2.1c0,1.5-0.2,2.7-0.5,3.4c-0.4,0.7-0.9,1.3-1.7,1.5
				c-0.8,0.3-2.4,0.4-4.7,0.4h-6.9L65.2,17.6L65.2,17.6z M71.1,21.5v5.1c0.3,0,0.5,0,0.6,0c0.6,0,1-0.1,1.1-0.4
				c0.1-0.3,0.2-1.1,0.2-2.5c0-0.7-0.1-1.2-0.2-1.5c-0.1-0.3-0.3-0.5-0.5-0.5C72.2,21.5,71.7,21.5,71.1,21.5z M71.1,30v6.4
				c0.8,0,1.4-0.2,1.6-0.4c0.2-0.2,0.3-0.8,0.3-1.7v-2.1c0-1-0.1-1.6-0.3-1.8C72.6,30.2,72,30.1,71.1,30z"/>
			<path d="M93.7,31.3h-7.4v4.1c0,0.8,0.1,1.4,0.2,1.6c0.1,0.2,0.4,0.4,0.7,0.4c0.4,0,0.7-0.2,0.9-0.5c0.1-0.3,0.2-1,0.2-1.9v-2.5
				h5.4v1.4c0,1.2-0.1,2-0.2,2.7c-0.1,0.6-0.5,1.3-1,2c-0.5,0.7-1.2,1.2-2,1.6c-0.8,0.4-1.9,0.5-3.1,0.5s-2.3-0.2-3.2-0.5
				c-0.9-0.3-1.6-0.8-2.2-1.4c-0.6-0.6-0.9-1.3-1.1-2c-0.2-0.7-0.3-1.8-0.3-3.2v-5.5c0-1.6,0.2-2.9,0.7-3.9c0.4-0.9,1.2-1.7,2.2-2.2
				c1-0.5,2.2-0.8,3.5-0.8c1.6,0,2.9,0.3,4,0.9c1,0.6,1.8,1.4,2.2,2.4c0.4,1,0.6,2.4,0.6,4.2L93.7,31.3L93.7,31.3z M88.1,28.2v-1.3
				c0-1-0.1-1.6-0.2-1.9s-0.3-0.4-0.6-0.4c-0.4,0-0.6,0.1-0.7,0.4c-0.1,0.2-0.1,0.9-0.1,1.9v1.4L88.1,28.2L88.1,28.2z"/>
			<path d="M100.7,28.9h-5.4v-1.3c0-1.4,0.2-2.6,0.5-3.4c0.3-0.8,1-1.5,2-2.1c1-0.6,2.3-0.9,3.9-0.9c1.9,0,3.4,0.3,4.4,1
				c1,0.7,1.6,1.5,1.8,2.5c0.2,1,0.3,3,0.3,6.1v9.3h-5.6v-1.7c-0.3,0.7-0.8,1.2-1.3,1.5c-0.6,0.3-1.2,0.5-2,0.5
				c-1,0-1.9-0.3-2.7-0.8c-0.8-0.5-1.3-1.8-1.3-3.7v-1.5c0-1.4,0.2-2.4,0.7-2.9c0.4-0.5,1.5-1.1,3.3-1.8c1.9-0.7,2.9-1.2,3-1.5
				c0.1-0.3,0.2-0.8,0.2-1.6c0-1-0.1-1.6-0.2-1.9c-0.1-0.3-0.4-0.4-0.7-0.4c-0.4,0-0.6,0.1-0.7,0.4c-0.1,0.2-0.1,0.9-0.1,1.9
				L100.7,28.9L100.7,28.9z M102.5,31.4c-0.9,0.7-1.4,1.2-1.6,1.7c-0.1,0.5-0.2,1.1-0.2,1.9c0,1,0.1,1.6,0.2,1.9
				c0.1,0.3,0.4,0.4,0.8,0.4s0.6-0.1,0.7-0.3s0.2-0.8,0.2-1.7L102.5,31.4L102.5,31.4z"/>
			<path d="M123.1,21.7v18.6h-5.8l0.1-1.6c-0.4,0.6-0.9,1.1-1.5,1.4c-0.6,0.3-1.2,0.5-2,0.5c-0.9,0-1.6-0.2-2.1-0.5
				c-0.6-0.3-1-0.7-1.3-1.2c-0.3-0.5-0.4-1-0.5-1.6c-0.1-0.5-0.1-1.6-0.1-3.2V21.7h5.7v12.7c0,1.5,0,2.3,0.1,2.6
				c0.1,0.3,0.3,0.4,0.7,0.4c0.4,0,0.7-0.1,0.8-0.4c0.1-0.3,0.1-1.2,0.1-2.7V21.7H123.1z"/>
			<path d="M131.1,19.2v3h1.5v3h-1.5v9.9c0,1.2,0.1,1.9,0.2,2.1c0.1,0.1,0.7,0.2,1.6,0.2v3h-2.3c-1.3,0-2.2-0.1-2.8-0.2
				c-0.6-0.1-1-0.4-1.5-0.7c-0.4-0.4-0.7-0.8-0.8-1.3c-0.1-0.5-0.2-1.7-0.2-3.6v-9.4h-1.2v-3h1.2v-3
				C125.4,19.2,131.1,19.2,131.1,19.2z"/>
			<path d="M146.3,21.7l-1.6,13.5c-0.3,2.1-0.5,3.6-0.6,4.4c-0.2,0.8-0.5,1.4-0.9,1.9c-0.4,0.5-1,0.9-1.7,1.1
				c-0.7,0.2-1.9,0.4-3.5,0.4h-3.5v-3c0.9,0,1.5,0,1.7-0.1c0.3-0.1,0.4-0.3,0.4-0.6c0-0.2-0.1-0.8-0.4-2l-3.1-15.6h5.2l1.9,12.6
				l0.9-12.6C141.2,21.7,146.3,21.7,146.3,21.7z"/>
		</g>
		<g>
			<path d="M168.8,46.8c-1.6,0-3-0.5-4.1-1.5c-1.2-1-1.8-2.4-1.8-4c0-2,0.6-3.8,1.8-5.4c1.3-1.8,2.9-2.7,4.9-2.7
				c1.9,0,3.3,0.4,4.2,1.3c1,0.9,1.4,2.3,1.4,4.2c0,2-0.5,3.8-1.6,5.4C172.4,45.9,170.8,46.8,168.8,46.8z M169.6,35.2
				c-1.4,0-2.6,0.7-3.6,2.1c-0.9,1.3-1.3,2.7-1.3,4.2c0,1.1,0.4,2,1.2,2.7s1.8,1,2.9,1c1.4,0,2.5-0.7,3.4-2.1
				c0.8-1.3,1.2-2.7,1.2-4.2c0-1.4-0.3-2.3-0.9-2.9C172,35.4,171,35.2,169.6,35.2z"/>
			<path d="M182.9,34.3c-1.4,0-2.2,1-2.3,2.9v0.5c1-0.1,1.6-0.1,1.9-0.1c0.9,0,1.4,0.3,1.4,0.9c0,0.4-0.2,0.7-0.7,0.7
				c-0.2,0-0.4,0-0.7,0c-0.3,0-0.9,0-2,0.1l-0.1,2c0,0.4,0,0.9,0,1.6c0,0.7,0,1.2,0,1.6c0,1.1-0.1,1.9-0.2,2.5
				c-0.1,0.5-0.4,0.7-0.8,0.7c-0.2,0-0.4-0.1-0.6-0.2c-0.2-0.1-0.2-0.3-0.2-0.6c0,0,0-0.1,0-0.2c0.1-0.7,0.2-1.6,0.2-2.4V42v-2.5
				c-0.7,0.1-1.2,0.1-1.4,0.1c-0.6,0-0.9-0.3-0.9-0.8c0-0.6,0.5-0.9,1.5-0.9h0.8c0-0.3,0.1-0.8,0.1-1.3c0.1-1.3,0.5-2.2,1-2.8
				c0.6-0.7,1.5-1.1,2.8-1.1c0.8,0,1.2,0.3,1.2,0.8C184,34.1,183.6,34.3,182.9,34.3z"/>
		</g>
		<g>
			<path d="M64.8,55h5.9c1.9,0,3.3,0.1,4.2,0.4c0.9,0.3,1.7,0.9,2.3,1.8c0.6,0.9,0.9,2.3,0.9,4.3c0,1.3-0.2,2.3-0.6,2.8
				c-0.4,0.5-1.2,0.9-2.5,1.2c1.4,0.3,2.3,0.8,2.8,1.5s0.7,1.8,0.7,3.3v2.1c0,1.5-0.2,2.7-0.5,3.4c-0.4,0.7-0.9,1.3-1.7,1.5
				c-0.8,0.3-2.3,0.4-4.7,0.4h-6.9L64.8,55L64.8,55z M70.8,58.9v5.1c0.3,0,0.5,0,0.6,0c0.6,0,1-0.1,1.1-0.4c0.1-0.3,0.2-1.1,0.2-2.5
				c0-0.7-0.1-1.2-0.2-1.5c-0.1-0.3-0.3-0.5-0.5-0.5C71.8,59,71.4,58.9,70.8,58.9z M70.8,67.4v6.4c0.8,0,1.4-0.2,1.6-0.4
				c0.2-0.2,0.3-0.8,0.3-1.7v-2.1c0-1-0.1-1.6-0.3-1.8C72.2,67.6,71.6,67.5,70.8,67.4z"/>
			<path d="M90.9,55l3.4,22.7h-6.1l-0.3-4.1h-2.1l-0.3,4.1h-6.1l3-22.7H90.9z M87.8,69.6c-0.3-2.6-0.6-5.8-0.9-9.5
				c-0.6,4.4-1,7.6-1.1,9.5H87.8z"/>
			<path d="M108.5,55v22.7h-5.2l-3.1-10.3v10.3h-5V55h5l3.3,10.2V55H108.5z"/>
			<path d="M124.4,63.3h-5.9v-2.1c0-1.3-0.1-2.1-0.2-2.5c-0.1-0.3-0.4-0.5-0.8-0.5s-0.6,0.1-0.7,0.4c-0.1,0.3-0.2,1-0.2,2.2v10.8
				c0,1,0.1,1.7,0.2,2c0.1,0.3,0.4,0.5,0.8,0.5c0.4,0,0.7-0.2,0.9-0.5c0.2-0.4,0.2-1.1,0.2-2.1v-2.7h-1.2v-3.5h6.9v12.2h-3.7
				l-0.5-1.6c-0.4,0.7-0.9,1.2-1.5,1.6c-0.6,0.4-1.3,0.5-2.2,0.5c-1,0-1.9-0.2-2.8-0.7c-0.9-0.5-1.5-1.1-2-1.8
				c-0.5-0.7-0.7-1.5-0.8-2.2c-0.1-0.8-0.2-2-0.2-3.5v-6.8c0-2.2,0.1-3.8,0.4-4.7s0.9-1.9,2-2.7c1.1-0.8,2.6-1.2,4.3-1.2
				c1.7,0,3.2,0.4,4.3,1.1c1.1,0.7,1.9,1.6,2.2,2.5c0.3,0.9,0.5,2.4,0.5,4.3L124.4,63.3L124.4,63.3z"/>
			<path d="M132.5,55v18.1h3.6v4.6h-9.4V55H132.5z"/>
			<path d="M148.4,55l3.4,22.7h-6.1l-0.3-4.1h-2.1l-0.4,4.1h-6.1l3-22.7H148.4z M145.4,69.6c-0.3-2.6-0.6-5.8-0.9-9.5
				c-0.6,4.4-1,7.6-1.1,9.5H145.4z"/>
			<path d="M152.8,55h4.4c2.9,0,4.8,0.1,5.8,0.4c1,0.3,1.8,0.7,2.3,1.3c0.5,0.6,0.9,1.3,1,2c0.1,0.7,0.2,2.2,0.2,4.3v8
				c0,2-0.1,3.4-0.3,4.1c-0.2,0.7-0.5,1.2-1,1.6c-0.5,0.4-1.1,0.7-1.8,0.8c-0.7,0.2-1.8,0.2-3.2,0.2h-7.5L152.8,55L152.8,55z
				 M158.7,58.9v14.9c0.9,0,1.4-0.2,1.6-0.5s0.3-1.3,0.3-2.8v-8.8c0-1,0-1.7-0.1-2c-0.1-0.3-0.2-0.5-0.5-0.6
				C159.8,59,159.4,58.9,158.7,58.9z"/>
			<path d="M168.7,55h9.8v4.6h-4v4.3h3.7v4.3h-3.7v5h4.4v4.6h-10.2L168.7,55L168.7,55z"/>
			<path d="M193.1,61.9h-5.5v-1.7c0-0.8-0.1-1.3-0.2-1.5c-0.1-0.2-0.4-0.3-0.7-0.3c-0.4,0-0.6,0.1-0.8,0.4c-0.2,0.3-0.3,0.7-0.3,1.3
				c0,0.8,0.1,1.3,0.3,1.7s0.8,0.9,1.7,1.4c2.6,1.6,4.3,2.9,5,3.9c0.7,1,1,2.6,1,4.9c0,1.6-0.2,2.8-0.6,3.6
				c-0.4,0.8-1.1,1.4-2.2,1.9s-2.4,0.8-3.8,0.8c-1.6,0-2.9-0.3-4.1-0.9c-1.1-0.6-1.9-1.4-2.2-2.3c-0.3-0.9-0.5-2.2-0.5-4v-1.5h5.5
				v2.8c0,0.9,0.1,1.4,0.2,1.6c0.1,0.2,0.4,0.4,0.8,0.4c0.4,0,0.7-0.2,0.9-0.5c0.2-0.3,0.3-0.8,0.3-1.4c0-1.3-0.2-2.2-0.5-2.6
				c-0.4-0.4-1.3-1.1-2.8-2.1s-2.5-1.7-2.9-2.1c-0.5-0.4-0.9-1.1-1.2-1.8c-0.3-0.8-0.5-1.8-0.5-3c0-1.7,0.2-3,0.7-3.8
				c0.4-0.8,1.2-1.4,2.2-1.9s2.2-0.7,3.6-0.7c1.5,0,2.9,0.2,3.9,0.7s1.8,1.1,2.2,1.9c0.4,0.8,0.5,2,0.5,3.9L193.1,61.9L193.1,61.9z"
				/>
			<path d="M209,55v22.7h-5.9v-9.5h-1.8v9.5h-5.9V55h5.9v8.2h1.8V55H209z"/>
		</g>
	</g>
	<g>
		<g>
			<path class="st0" d="M59.9,79.2c-0.9-8.7-0.7-17-3.4-25.1c-0.9-2.7,0.5-7.2-3.1-7.7c-4-0.6-3.6,4.3-5.2,6.8c-0.1,0.1,0,0.4,0,0.5
				c-0.6,2.2-1,2.5-3,0.6c-5.8-5.7-5.1-11.4,2.4-14.1c3.5-1.2,5.5-3.3,6.6-6.5c0.4-1,0.1-2.4,1.5-2.7c5.3-1.3,0.8-2.6-0.1-3.3
				c-1.6-1.3-3.5-1.5-5.6-1.4c-5.8,0.2-11.6,0.2-17.4,0c-7.3-0.2-8.5-1.5-8.7-8.7c0-1.5-0.1-2.9-0.9-4.2c-0.6-1-1.3-1.9-2.4-0.6
				c-2.8,3.4-4.2,1.5-5.6-1.2c-0.7-1.4-1-4.2-3.2-0.8c-0.7,1-1.8,0.3-2.6-0.8c-0.9-1.5-2-2.7-3.7-3c-1.8,1.1,0.7,3-1.2,4.3
				c-4.4,3.1-3.2,5.8,0.6,8.7c1.5,1.2,3,1.8,4.7,2.4c0.6,0.2,1.1,1.4,1.4,2.2c0.4,0.9-0.4,1.5-1.1,1.3c-3.2-1-3.9,1.6-5.6,3.3
				c-5,5-5.3,5.6,1.3,7.9c4.3,1.5,4.2,3.6,2.7,6.8c-0.7,1.5-1.3,2.9-0.1,4.6c4,5.8,3.8,12.9,5.4,19.4c1.5,6.1,3.5,7.2,8.6,3.3
				c2-1.5,3.4-4.4,5.2,0.2c0.6,1.4,1.8,0.3,2.5-0.6c0.7-1,0.6-2.8,2.9-2.1c3.7,1.1,4.1-1.6,4.5-4.3c0.1-1-1.1-2.2,1.1-2.9
				c6.2-2,12.3,1.7,11.4,8.3c-0.9,6.5,3.2,10.4,4.9,15.3C57.7,83.6,49.4,75.5,59.9,79.2z"/>
		</g>
		<path class="st1" d="M37.4,43.6c-1.1-5.6-6.1-9.7-11.9-9.7c-6.7,0-12.1,5.4-12.1,12.1s5.4,12.1,12.1,12.1c5.7,0,10.7-4.1,11.9-9.7
			c0.1-0.7,0.8-1.2,1.5-1.1C39,47,39,46.5,39,46s0-0.9-0.1-1.4C38.2,44.8,37.6,44.3,37.4,43.6z"/>
	</g>
</g>
</svg>
